<svg xmlns="http://www.w3.org/2000/svg" xmlns:xlink="http://www.w3.org/1999/xlink" width="82px" height="82px">
    <path fill-rule="evenodd"  fill="rgb(242, 166, 58)" d="M41.000,0.000 C63.644,0.000 82.000,18.356 82.000,41.000 C82.000,63.643 63.644,82.000 41.000,82.000 C18.356,82.000 -0.000,63.643 -0.000,41.000 C-0.000,18.356 18.356,0.000 41.000,0.000 Z"/>
    <path fill-rule="evenodd"  fill="rgb(255, 255, 255)" d="M31.153,33.165 C32.911,41.825 37.531,48.708 45.217,53.920 C46.421,52.925 47.547,52.002 48.664,51.070 C50.667,49.399 51.585,49.432 53.452,51.237 C55.471,53.190 57.502,55.134 59.517,57.091 C59.783,57.349 60.017,57.644 60.213,57.950 C60.970,59.131 60.824,59.957 59.683,60.864 C58.336,61.936 57.046,63.088 55.592,64.024 C53.409,65.429 50.954,66.003 48.316,65.272 C44.930,64.334 42.264,62.328 39.739,60.159 C35.677,56.669 32.375,52.609 29.476,48.268 C26.969,44.512 24.761,40.614 23.200,36.426 C22.143,33.589 21.342,30.703 21.314,27.684 C21.285,24.560 22.686,22.061 25.470,20.295 C26.233,19.812 27.212,19.616 28.094,19.294 C29.023,18.956 29.949,18.610 30.887,18.295 C32.692,17.689 33.535,18.133 34.252,19.706 C35.532,22.519 36.586,25.420 37.700,28.295 C38.290,29.818 37.757,30.786 36.112,31.372 C34.504,31.945 32.902,32.532 31.153,33.165 Z"/>
</svg>
